<?xml version="1.0" encoding="UTF-8" standalone="no"?>
<svg width="180px" height="58px" viewBox="0 0 180 58" version="1.1" xmlns="http://www.w3.org/2000/svg" xmlns:xlink="http://www.w3.org/1999/xlink" xmlns:sketch="http://www.bohemiancoding.com/sketch/ns">
    <!-- Generator: Sketch 3.4 (15575) - http://www.bohemiancoding.com/sketch -->
    <title>logo</title>
    <desc>Created with Sketch.</desc>
    <defs></defs>
    <g id="Page-1" stroke="none" stroke-width="1" fill="none" fill-rule="evenodd" sketch:type="MSPage">
        <g id="logo" sketch:type="MSArtboardGroup">
            <g id="+RED-Natural-Power.ai" sketch:type="MSLayerGroup" transform="translate(-47.617609, -71.333984)">
                <path d="M218.301803,76.2847284 C217.164663,74.4248155 215.012933,73.2142134 211.722709,72.5835221 C209.243953,72.1112654 204.399852,71.8814 196.90942,71.8814 L158.231087,71.8499162 L156.490677,71.8505932 L155.467962,73.2196299 L154.219782,74.8889474 C153.146964,73.7988638 151.485433,72.8482567 148.913242,72.4460768 C146.468002,72.0652246 141.755252,71.8797073 134.502133,71.8797073 L84.0376942,71.9843147 C82.6835531,71.9883771 81.3182403,72.6793276 80.471902,73.7876921 L51.2058653,112.273399 C50.3266892,113.433559 50.0355488,114.360469 50.5914238,115.27553 C51.1043047,116.118483 52.3233703,116.188898 53.7255834,116.188898 L176.326136,116.176372 C180.14346,116.172648 183.049786,116.03588 185.213026,115.75862 C187.482228,115.463078 189.614662,114.942411 191.5565,114.209144 C193.624612,113.427466 195.503483,112.32858 197.140301,110.942955 C198.700272,109.617251 200.7694,107.220421 203.467187,103.612312 L213.31958,90.4294096 C217.077321,85.4024992 218.086495,83.6045383 218.519482,82.6901545 C219.554722,80.4808732 219.475167,78.2089629 218.301803,76.2847284" id="Fill-1" fill="#000000" sketch:type="MSShapeGroup"></path>
                <path d="M207.719157,114.605535 C207.196797,113.607871 205.977731,112.418935 203.139113,112.418935 L202.999975,112.418935 L196.887382,112.418935 L196.498743,112.418935 L188.875606,112.418935 L174.718399,112.418935 L174.642228,112.567214 C173.927242,112.341072 173.089367,112.226309 172.126234,112.226309 C170.146818,112.226309 168.513047,112.662342 167.124375,113.359725 C166.398555,112.823146 165.321675,112.418935 163.717695,112.418935 L157.719865,112.418935 L155.89516,112.418935 L148.257127,112.418935 L146.401953,112.418935 L139.872962,112.418935 L138.110547,114.028332 C137.446002,113.200275 136.210349,112.418935 133.906616,112.418935 L133.604981,112.418935 L127.655223,112.418935 L125.084386,112.418935 L118.444694,112.418935 L113.46721,112.418935 L109.924438,112.418935 L108.026948,112.418935 L105.083045,112.418935 L92.5379428,112.418935 L81.2691188,127.243734 L202.228791,127.348341 L203.955321,123.977884 C203.955321,123.977884 204.393386,122.292994 204.561638,121.501837 C205.46959,120.923957 206.277673,120.167669 206.964223,119.244484 C208.509298,117.170278 208.227298,115.576454 207.719157,114.605535" id="Fill-3" fill="#020202" sketch:type="MSShapeGroup"></path>
                <path d="M133.279852,81.6605333 L127.023381,90.0298026 C128.732646,90.0274328 130.597298,89.8632432 131.508635,89.5609312 C132.419634,89.256588 133.495837,88.2772054 134.734538,86.6190596 L136.280967,84.5485778 C137.173346,83.3569336 137.429617,82.5725473 137.04538,82.2018512 C136.662158,81.8308165 135.036173,81.6581635 133.279852,81.6605333 L133.279852,81.6605333 Z M123.460636,75.2182068 L134.212178,75.210082 C141.379647,75.2046654 146.098829,75.3800267 148.371078,75.7341346 C150.64028,76.0892581 152.02929,76.9972097 152.535739,78.4613749 C153.039141,79.9245243 152.090903,82.2597407 149.692381,85.4690552 C147.505781,88.3973854 145.466445,90.3679993 143.584527,91.3744647 C141.698547,92.384654 139.023103,92.9909707 135.553793,93.1937533 C138.199108,93.6697339 139.741136,94.312951 140.173107,95.118665 C140.602031,95.9240404 140.695467,96.66374 140.442581,97.3377637 C140.192742,98.0117875 138.929667,99.8669609 136.660465,102.904299 L129.239433,112.833539 L115.133006,112.841326 L124.482674,100.334478 C125.989156,98.3195161 126.673336,97.0737062 126.539614,96.5923091 C126.406908,96.112266 124.832719,95.8729216 122.742602,95.8735986 L110.055654,112.846065 L95.326661,112.855544 L123.460636,75.2182068 Z" id="Fill-4" fill="#FFFFFF" sketch:type="MSShapeGroup"></path>
                <path d="M158.232746,75.1794784 L184.467538,75.1669526 L178.83905,82.6997012 L168.121023,82.7044407 L162.787738,89.8427957 L171.942409,89.831624 L166.590843,96.9919838 L157.487291,96.9632083 L151.301574,105.240396 L162.063611,105.26714 L156.434108,112.80192 L130.095386,112.817831 L158.232746,75.1794784 Z" id="Fill-5" fill="#FFFFFF" sketch:type="MSShapeGroup"></path>
                <path d="M195.185328,81.6415415 L176.770024,106.403705 C178.956623,106.400658 180.916404,106.123398 181.845683,105.556012 C182.772593,104.990659 184.17616,103.451677 186.051984,100.942454 L196.982612,86.3177293 C198.258213,84.6145583 198.988772,83.5197352 199.180383,83.0407078 C199.371317,82.5606648 199.250121,82.207911 198.817473,81.9848162 C198.382116,81.7586747 196.843474,81.6401873 195.185328,81.6415415 L195.185328,81.6415415 Z M185.30179,75.2195271 L196.664388,75.2117408 C204.001464,75.2070013 208.801555,75.41994 211.064325,75.851234 C213.322694,76.2838821 214.757745,76.9961603 215.362708,77.9877301 C215.967332,78.9789614 215.98392,80.0802167 215.412811,81.2986052 C214.838655,82.5149625 213.220456,84.9046831 210.55483,88.4697981 L200.703453,101.651685 C198.17561,105.031621 196.240204,107.287959 194.896896,108.4295 C193.553249,109.567656 192.027809,110.460035 190.319222,111.103929 C188.613342,111.749515 186.759523,112.198075 184.766227,112.457393 C182.769208,112.713325 179.956657,112.842984 176.324512,112.846031 L157.168492,112.858557 L185.30179,75.2195271 Z" id="Fill-6" fill="#FFFFFF" sketch:type="MSShapeGroup"></path>
                <path d="M93.8813185,112.366936 C93.6866607,112.621515 93.315626,112.830391 93.0542768,112.830391 L55.478553,112.858828 C55.215511,112.858828 55.1606683,112.652998 55.354649,112.396727 L83.2137332,75.77635 C83.4094066,75.5204173 83.7801027,75.3145878 84.0407749,75.3145878 L121.618868,75.2841197 C121.879541,75.2841197 121.934722,75.4906262 121.739726,75.7465588 L93.8813185,112.366936 Z" id="Fill-7" fill="#EC2224" sketch:type="MSShapeGroup"></path>
                <path d="M106.851045,88.9065425 L97.9414737,88.9133132 L104.547313,80.2308988 C104.741293,79.9773359 104.686451,79.7698137 104.42307,79.7698137 L94.7941112,79.776923 C94.5317463,79.776923 94.1624043,79.9851222 93.966731,80.2397007 L87.3619076,88.9221151 L78.4560598,88.9292244 C78.1947106,88.9292244 77.8253686,89.1357309 77.6300338,89.3909865 L70.4899861,98.7768772 C70.2960054,99.0328099 70.3494939,99.2386394 70.6108432,99.2386394 L79.5190606,99.2308531 L72.9155914,107.910898 C72.7222877,108.168523 72.7757763,108.376045 73.0394953,108.376045 L82.6687929,108.366566 C82.9318348,108.366566 83.2994842,108.160737 83.4941419,107.903111 L90.0993039,99.2227282 L99.0058287,99.2166346 C99.2671779,99.2166346 99.637874,99.0084354 99.8311777,98.7545339 L106.971902,89.3676276 C107.168591,89.112372 107.111717,88.9065425 106.851045,88.9065425" id="Fill-8" fill="#FFFFFF" sketch:type="MSShapeGroup"></path>
                <path d="M96.9847053,115.11933 L95.1552606,121.823344 L95.1914839,121.823344 L100.184879,115.11933 L102.581032,115.11933 L95.2913518,124.908754 L92.3135955,124.908754 L94.2205647,118.053076 L94.1812946,118.053076 L89.0782137,124.908754 L86.6786757,124.908754 L93.9683559,115.11933 L96.9847053,115.11933 Z" id="Fill-9" fill="#FFFFFF" sketch:type="MSShapeGroup"></path>
                <path d="M101.9976,121.220751 L104.539323,121.220751 L106.565118,116.819115 L106.529911,116.819115 L101.9976,121.220751 Z M106.194422,115.11933 L109.429804,115.11933 L105.574564,124.908754 L102.849017,124.908754 L103.790822,122.838273 L100.339455,122.838273 L98.1975418,124.908754 L95.4719942,124.908754 L106.194422,115.11933 Z" id="Fill-10" fill="#FFFFFF" sketch:type="MSShapeGroup"></path>
                <path d="M119.642533,115.11933 L118.435994,116.736513 L115.604484,116.736513 L109.516943,124.908754 L106.900742,124.908754 L112.987945,116.736513 L110.152374,116.736513 L111.355867,115.11933 L119.642533,115.11933 Z" id="Fill-11" fill="#FFFFFF" sketch:type="MSShapeGroup"></path>
                <path d="M122.491443,115.11933 L117.406982,121.946571 C116.681162,122.921552 116.452651,123.647033 117.668669,123.647033 C118.884688,123.647033 119.736104,122.921552 120.461586,121.946571 L125.546047,115.11933 L128.161909,115.11933 L123.078125,121.946571 C121.219566,124.442253 118.713051,125.101042 116.58468,125.101042 C114.459016,125.101042 112.84251,124.56548 114.791458,121.946571 L119.874904,115.11933 L122.491443,115.11933 Z" id="Fill-12" fill="#FFFFFF" sketch:type="MSShapeGroup"></path>
                <path d="M128.516796,119.397061 L129.606879,119.397061 C130.862168,119.397061 131.874727,118.985402 132.661483,117.929511 C133.336523,117.025622 133.036242,116.572323 131.855769,116.572323 L130.620115,116.572323 L128.516796,119.397061 Z M129.084519,115.11933 L133.919819,115.11933 C136.06207,115.11933 136.735755,115.970069 135.490961,117.642094 C134.523089,118.94444 133.177749,119.821923 131.533145,120.054497 L131.51351,120.082595 C133.162177,120.260326 132.884916,121.001042 131.378434,123.071523 C130.629594,124.099655 130.303585,124.633864 130.652615,124.826152 L130.591001,124.908754 L127.75543,124.908754 C127.706681,124.633864 127.926052,124.263845 128.193833,123.879607 L129.522923,122.001752 C130.055439,121.234969 129.9488,120.767791 128.894601,120.767791 L127.497127,120.767791 L124.41341,124.908754 L121.793823,124.908754 L129.084519,115.11933 Z" id="Fill-13" fill="#FFFFFF" sketch:type="MSShapeGroup"></path>
                <path d="M136.787856,121.220751 L139.329579,121.220751 L141.355374,116.819115 L141.319828,116.819115 L136.787856,121.220751 Z M140.984678,115.11933 L144.22006,115.11933 L140.36482,124.908754 L137.639272,124.908754 L138.581077,122.838273 L135.12971,122.838273 L132.987797,124.908754 L130.261911,124.908754 L140.984678,115.11933 Z" id="Fill-14" fill="#FFFFFF" sketch:type="MSShapeGroup"></path>
                <path d="M140.54228,124.908585 L147.832299,115.11916 L150.451885,115.11916 L144.365359,123.291402 L148.997199,123.291402 L147.794044,124.908585 L140.54228,124.908585 Z" id="Fill-15" fill="#FFFFFF" sketch:type="MSShapeGroup"></path>
                <path d="M158.471616,119.54859 L159.632454,119.54859 C160.667695,119.54859 161.722571,119.082088 162.468025,118.080701 C163.184366,117.120615 163.083821,116.572526 161.774367,116.572526 L160.68733,116.572526 L158.471616,119.54859 Z M159.151734,115.119194 L163.729408,115.119194 C166.38454,115.119194 166.196653,116.586745 165.106569,118.052941 C163.593655,120.082798 161.258439,121.000906 158.787131,121.000906 L157.390673,121.000906 L154.477239,124.908619 L151.861715,124.908619 L159.151734,115.119194 Z" id="Fill-16" fill="#FFFFFF" sketch:type="MSShapeGroup"></path>
                <path d="M165.645247,123.647101 C167.190322,123.647101 168.190355,122.646391 170.148443,120.013602 C172.100438,117.395708 172.599777,116.38078 171.054702,116.38078 C169.509966,116.38078 168.5035,117.395708 166.551844,120.013602 C164.593418,122.646391 164.100172,123.647101 165.645247,123.647101 M172.139031,114.926771 C176.0613,114.926771 174.980696,117.038892 172.764644,120.013602 C170.54893,122.989666 168.48725,125.10111 164.564642,125.10111 C160.638648,125.10111 161.719592,122.989666 163.935982,120.013602 C166.148649,117.038892 168.213037,114.926771 172.139031,114.926771" id="Fill-17" fill="#FFFFFF" sketch:type="MSShapeGroup"></path>
                <path d="M176.46436,115.11933 L178.970876,115.11933 L175.015768,122.358907 L175.051991,122.358907 L181.971314,115.11933 L184.477829,115.11933 L180.61311,122.358907 L180.648657,122.358907 L187.474543,115.11933 L189.983767,115.11933 L180.329079,124.908754 L177.403796,124.908754 L181.238385,117.806284 L181.203177,117.806284 L174.461586,124.908754 L171.535625,124.908754 L176.46436,115.11933 Z" id="Fill-18" fill="#FFFFFF" sketch:type="MSShapeGroup"></path>
                <path d="M197.55521,115.11933 L196.351717,116.736513 L191.719877,116.736513 L190.003504,119.041261 L194.361468,119.041261 L193.157975,120.658444 L188.796964,120.658444 L186.838876,123.291571 L191.651493,123.291571 L190.448339,124.908754 L183.016135,124.908754 L190.306831,115.11933 L197.55521,115.11933 Z" id="Fill-19" fill="#FFFFFF" sketch:type="MSShapeGroup"></path>
                <path d="M197.748412,119.397061 L198.838496,119.397061 C200.093785,119.397061 201.106344,118.985402 201.8931,117.929511 C202.568139,117.025622 202.267858,116.572323 201.087386,116.572323 L199.851732,116.572323 L197.748412,119.397061 Z M198.316136,115.11933 L203.151774,115.11933 C205.293687,115.11933 205.967372,115.970069 204.722578,117.642094 C203.755044,118.94444 202.409366,119.821923 200.764762,120.054497 L200.745127,120.082595 C202.393793,120.260326 202.116533,121.001042 200.610051,123.071523 C199.861211,124.099655 199.535201,124.633864 199.883893,124.826152 L199.822618,124.908754 L196.987046,124.908754 C196.938636,124.633864 197.158684,124.263845 197.42545,123.879607 L198.754539,122.001752 C199.287055,121.234969 199.180417,120.767791 198.126218,120.767791 L196.728744,120.767791 L193.645026,124.908754 L191.026456,124.908754 L198.316136,115.11933 Z" id="Fill-20" fill="#FFFFFF" sketch:type="MSShapeGroup"></path>
                <path d="M201.784261,108.531873 L200.924381,108.533227 L201.16271,107.827043 L203.846279,107.823319 L203.60795,108.529842 L202.747732,108.530519 L201.734835,111.533665 L200.771702,111.53502 L201.784261,108.531873 Z" id="Fill-21" fill="#000000" sketch:type="MSShapeGroup"></path>
                <path d="M204.045642,107.823386 L205.45598,107.821355 L205.138773,110.257117 L205.150283,110.257117 L206.459738,107.82034 L207.85281,107.818308 L206.601584,111.527978 L205.707174,111.529332 L206.681478,108.640272 L206.669968,108.640272 L205.071066,111.530009 L204.325273,111.530686 L204.640449,108.642303 L204.628939,108.642303 L203.654634,111.531363 L202.794416,111.533056 L204.045642,107.823386 Z" id="Fill-22" fill="#000000" sketch:type="MSShapeGroup"></path>
            </g>
        </g>
    </g>
</svg>